<svg width="24" height="24" viewBox="0 0 24 24" fill="none" xmlns="http://www.w3.org/2000/svg">
<path d="M18.624 12.7266C18.4197 12.2417 18.1879 11.6916 17.9615 11.0127C17.369 9.23655 19.2623 7.29855 19.2803 7.28025L18.2198 6.21975C18.1142 6.3252 15.6522 8.82787 16.5385 11.4873C16.7831 12.2208 17.027 12.7991 17.242 13.3098C17.7424 14.2987 18.0021 15.3917 18 16.5C17.9121 17.3933 17.5692 18.2425 17.0122 18.9464C16.4551 19.6502 15.7074 20.179 14.8581 20.4697C15.1264 19.418 15.1223 18.3152 14.8462 17.2654C14.5701 16.2156 14.0312 15.2535 13.2803 14.4697L12.497 13.6864L12.0608 14.7045C10.6837 17.9175 9.045 19.32 8.08103 19.905C7.48942 19.5427 6.99228 19.045 6.6305 18.4531C6.26872 17.8611 6.05263 17.1918 6 16.5C6.05167 15.5559 6.28833 14.6312 6.69653 13.7783C7.18082 12.7503 7.45403 11.6355 7.5 10.5V9.16628C8.15513 9.43628 9 10.1441 9 12V13.9526L10.3074 12.502C12.6413 9.9111 12.1542 6.8262 11.2119 4.77097C11.9285 5.00986 12.5438 5.48291 12.9588 6.11398C13.3739 6.74505 13.5645 7.49743 13.5 8.25H15C15 4.09718 11.5661 3 9.75 3H8.25L9.1494 4.19895C9.25268 4.33815 11.2965 7.1448 10.1645 9.96495C9.91268 9.25618 9.45116 8.64079 8.84129 8.20051C8.23141 7.76024 7.50202 7.51592 6.75 7.5H6V10.5C5.94833 11.4441 5.71167 12.3688 5.30348 13.2217C4.81918 14.2497 4.54597 15.3645 4.5 16.5C4.5 19.3858 7.3674 22.5 12 22.5C16.6326 22.5 19.5 19.3858 19.5 16.5C19.5011 15.1917 19.2014 13.9006 18.624 12.7266ZM9.6264 20.6448C11.0098 19.4994 12.1273 18.0665 12.9013 16.4458C13.3147 17.1132 13.5496 17.8756 13.5833 18.6599C13.6171 19.4443 13.4487 20.2241 13.0943 20.9246C12.7315 20.9733 12.366 20.9985 12 21C11.1952 21.0056 10.3943 20.8858 9.6264 20.6448Z" fill="#4589FF"/>
</svg>
