<svg width="24" height="24" viewBox="0 0 24 24" fill="none" xmlns="http://www.w3.org/2000/svg">
<path d="M12 22.5C9.21619 22.4969 6.5473 21.3896 4.57884 19.4212C2.61039 17.4527 1.50314 14.7838 1.5 12H3C3 13.78 3.52784 15.5201 4.51677 17.0001C5.50571 18.4802 6.91131 19.6337 8.55585 20.3149C10.2004 20.9961 12.01 21.1743 13.7558 20.8271C15.5016 20.4798 17.1053 19.6226 18.364 18.364C19.6226 17.1053 20.4798 15.5016 20.8271 13.7558C21.1743 12.01 20.9961 10.2004 20.3149 8.55585C19.6337 6.91131 18.4802 5.50571 17.0001 4.51677C15.5201 3.52784 13.78 3 12 3V1.5C14.7848 1.5 17.4555 2.60625 19.4246 4.57538C21.3938 6.54451 22.5 9.21523 22.5 12C22.5 14.7848 21.3938 17.4555 19.4246 19.4246C17.4555 21.3938 14.7848 22.5 12 22.5Z" fill="#4589FF"/>
<path d="M12 19.5C10.0116 19.4977 8.10525 18.7068 6.69922 17.3008C5.29319 15.8948 4.50228 13.9884 4.5 12H6C6 13.1867 6.35189 14.3467 7.01118 15.3334C7.67047 16.3201 8.60754 17.0892 9.7039 17.5433C10.8003 17.9974 12.0067 18.1162 13.1705 17.8847C14.3344 17.6532 15.4035 17.0818 16.2426 16.2426C17.0818 15.4035 17.6532 14.3344 17.8847 13.1705C18.1162 12.0067 17.9974 10.8003 17.5433 9.7039C17.0892 8.60754 16.3201 7.67047 15.3334 7.01118C14.3467 6.35189 13.1867 6 12 6V4.5C13.9891 4.5 15.8968 5.29018 17.3033 6.6967C18.7098 8.10322 19.5 10.0109 19.5 12C19.5 13.9891 18.7098 15.8968 17.3033 17.3033C15.8968 18.7098 13.9891 19.5 12 19.5Z" fill="#4589FF"/>
<path d="M12 16.5C10.8069 16.4986 9.66315 16.0241 8.81953 15.1805C7.97592 14.3369 7.50137 13.1931 7.5 12H9C9 12.5933 9.17595 13.1734 9.50559 13.6667C9.83524 14.1601 10.3038 14.5446 10.8519 14.7716C11.4001 14.9987 12.0033 15.0581 12.5853 14.9424C13.1672 14.8266 13.7018 14.5409 14.1213 14.1213C14.5409 13.7018 14.8266 13.1672 14.9424 12.5853C15.0581 12.0033 14.9987 11.4001 14.7716 10.8519C14.5446 10.3038 14.1601 9.83524 13.6667 9.50559C13.1734 9.17595 12.5933 9 12 9V7.5C13.1935 7.5 14.3381 7.97411 15.182 8.81802C16.0259 9.66193 16.5 10.8065 16.5 12C16.5 13.1935 16.0259 14.3381 15.182 15.182C14.3381 16.0259 13.1935 16.5 12 16.5Z" fill="#4589FF"/>
</svg>
