<svg width="24" height="24" viewBox="0 0 24 24" fill="none" xmlns="http://www.w3.org/2000/svg">
<path fill-rule="evenodd" clip-rule="evenodd" d="M3 16.5H9.75V15H3V5.25H19.5V12H21V5.25C20.9995 4.85232 20.8414 4.47105 20.5602 4.18984C20.2789 3.90864 19.8977 3.75046 19.5 3.75H3C2.6023 3.7504 2.221 3.90856 1.93978 4.18978C1.65856 4.471 1.5004 4.8523 1.5 5.25V15C1.50046 15.3977 1.65864 15.779 1.93984 16.0602C2.22105 16.3414 2.60232 16.4995 3 16.5ZM8.99998 7.49998V10.1895L5.78023 6.96973L4.71973 8.03023L7.93948 11.25H5.24998V12.75H10.5V7.49998H8.99998ZM21 21H12.75C12.3523 20.9995 11.9711 20.8414 11.6898 20.5602C11.4086 20.2789 11.2505 19.8977 11.25 19.5V15C11.2505 14.6023 11.4086 14.221 11.6898 13.9398C11.9711 13.6586 12.3523 13.5005 12.75 13.5H21C21.3977 13.5005 21.7789 13.6587 22.0601 13.9399C22.3413 14.2211 22.4995 14.6023 22.5 15V19.5C22.4995 19.8977 22.3413 20.2789 22.0601 20.5601C21.7789 20.8413 21.3977 20.9995 21 21ZM12.75 15V19.5H21.0015L21 15H12.75Z" fill="#4589FF"/>
</svg>
