<svg width="400" height="562" viewBox="0 0 400 562" fill="none" xmlns="http://www.w3.org/2000/svg">
<path d="M470.298 -0.324173C426.229 -20.8741 374.32 -24.6121 325.017 -6.6673C275.714 11.2775 238.352 47.5074 217.802 91.5768L145.298 57.7673C174.5 -4.85763 227.593 -56.3422 297.655 -81.8427C367.717 -107.343 441.483 -102.031 504.108 -72.8288L470.298 -0.324173Z" fill="url(#paint0_linear)" fill-opacity="0.05"/>
<path d="M562.199 252.172C582.749 208.102 586.487 156.193 568.542 106.89C553.061 64.3572 523.972 30.711 487.981 9.07906L521.922 -63.7083C576.432 -33.2157 620.679 16.2314 643.718 79.5289C669.218 149.591 663.906 223.356 634.704 285.981L562.199 252.172Z" fill="url(#paint1_linear)" fill-opacity="0.05"/>
<path d="M309.703 344.073C265.634 323.523 229.404 286.161 211.459 236.858C195.978 194.325 196.635 149.852 210.301 110.146L137.513 76.2051C115.357 134.602 113.245 200.922 136.284 264.22C161.784 334.282 213.269 387.375 275.894 416.577L309.703 344.073Z" fill="url(#paint2_linear)" fill-opacity="0.05"/>
<path d="M294.332 424.362L328.273 351.574C367.979 365.24 412.451 365.897 454.985 350.416C497.518 334.935 531.164 305.846 552.796 269.855L625.583 303.796C595.091 358.306 545.644 402.553 482.346 425.591C419.049 448.63 352.728 446.518 294.332 424.362Z" fill="url(#paint3_linear)" fill-opacity="0.05"/>
<path fill-rule="evenodd" clip-rule="evenodd" d="M163.84 383.893C113.965 330.713 82.6323 259.934 80.1585 181.874H0.125977C2.64653 282.022 42.9199 372.792 107.248 440.485L163.84 383.893ZM121.39 454.627C189.083 518.955 279.853 559.228 380 561.749V481.716C301.94 479.242 231.162 447.91 177.982 398.035L121.39 454.627ZM400 481.716V561.749C500.148 559.228 590.918 518.955 658.611 454.627L602.019 398.035C548.839 447.91 478.06 479.242 400 481.716ZM616.161 383.893L672.753 440.485C737.081 372.792 777.354 282.022 779.875 181.874H699.842C697.368 259.934 666.036 330.713 616.161 383.893ZM699.842 161.874H779.875C777.354 61.7265 737.081 -29.043 672.753 -96.736L616.161 -40.1442C666.036 13.0358 697.368 83.8142 699.842 161.874ZM602.019 -54.2863L658.611 -110.878C590.918 -175.206 500.148 -215.479 400 -218V-137.967C478.061 -135.494 548.839 -104.161 602.019 -54.2863ZM177.981 -54.2864C231.162 -104.161 301.94 -135.494 380 -137.967V-218C279.852 -215.479 189.083 -175.206 121.39 -110.878L177.981 -54.2864ZM80.1585 161.874C82.6323 83.8142 113.965 13.0358 163.839 -40.1443L107.248 -96.7361C42.9198 -29.043 2.64654 61.7264 0.125978 161.874H80.1585Z" fill="url(#paint4_linear)" fill-opacity="0.05"/>
<defs>
<linearGradient id="paint0_linear" x1="120" y1="442" x2="455" y2="107" gradientUnits="userSpaceOnUse">
<stop stop-color="white"/>
<stop offset="0.763055" stop-color="white" stop-opacity="0"/>
</linearGradient>
<linearGradient id="paint1_linear" x1="120" y1="442" x2="455" y2="107" gradientUnits="userSpaceOnUse">
<stop stop-color="white"/>
<stop offset="0.763055" stop-color="white" stop-opacity="0"/>
</linearGradient>
<linearGradient id="paint2_linear" x1="120" y1="442" x2="455" y2="107" gradientUnits="userSpaceOnUse">
<stop stop-color="white"/>
<stop offset="0.763055" stop-color="white" stop-opacity="0"/>
</linearGradient>
<linearGradient id="paint3_linear" x1="120" y1="442" x2="455" y2="107" gradientUnits="userSpaceOnUse">
<stop stop-color="white"/>
<stop offset="0.763055" stop-color="white" stop-opacity="0"/>
</linearGradient>
<linearGradient id="paint4_linear" x1="-1.25191e-05" y1="562" x2="780" y2="-218" gradientUnits="userSpaceOnUse">
<stop stop-color="white"/>
<stop offset="0.425516" stop-color="white" stop-opacity="0"/>
</linearGradient>
</defs>
</svg>
