<svg width="575" height="515" viewBox="0 0 575 515" fill="none" xmlns="http://www.w3.org/2000/svg">
<path d="M-48.0517 -84.8128C-79.3074 -47.5637 -96.3531 1.60901 -91.7803 53.8764C-87.2075 106.144 -61.882 151.61 -24.633 182.865L-76.056 244.149C-128.989 199.733 -164.978 135.124 -171.476 60.8489C-177.974 -13.4259 -153.751 -83.3029 -109.335 -136.236L-48.0517 -84.8128Z" fill="url(#paint0_linear)" fill-opacity="0.05"/>
<path d="M219.626 -108.232C182.377 -139.487 133.205 -156.533 80.9371 -151.96C35.8464 -148.015 -4.18222 -128.625 -34.3923 -99.4593L-95.9148 -151.083C-52.353 -195.843 6.86123 -225.785 73.9647 -231.656C148.239 -238.154 218.116 -213.931 271.049 -169.515L219.626 -108.232Z" fill="url(#paint1_linear)" fill-opacity="0.05"/>
<path d="M243.045 159.446C211.789 196.696 166.324 222.021 114.056 226.594C68.9656 230.539 26.1781 218.394 -8.63765 194.917L-60.2612 256.44C-9.58864 292.956 53.9253 312.16 121.029 306.289C195.303 299.791 259.913 263.802 304.329 210.869L243.045 159.446Z" fill="url(#paint2_linear)" fill-opacity="0.05"/>
<path d="M316.62 195.075L255.097 143.451C278.574 108.635 290.719 65.8479 286.774 20.7572C282.829 -24.3335 263.439 -64.3621 234.273 -94.5721L285.896 -156.095C330.657 -112.533 360.598 -53.3186 366.469 13.7848C372.34 80.8882 353.136 144.402 316.62 195.075Z" fill="url(#paint3_linear)" fill-opacity="0.05"/>
<path fill-rule="evenodd" clip-rule="evenodd" d="M243.756 310.646C179.48 345.057 103.003 357.004 26.9628 339.19L6.24888 416.495C103.637 439.981 201.737 424.572 283.773 379.957L243.756 310.646ZM301.093 369.957C380.749 321.219 443.143 243.966 471.498 147.883L394.192 127.169C371.6 201.929 323.016 262.187 261.077 300.646L301.093 369.957ZM399.369 107.851L476.674 128.565C500.16 31.1771 484.752 -66.9229 440.136 -148.959L370.826 -108.942C405.237 -44.6658 417.183 31.8104 399.369 107.851ZM360.826 -126.263L430.136 -166.279C381.399 -245.935 304.146 -308.329 208.063 -336.684L187.349 -259.379C262.109 -236.786 322.366 -188.202 360.826 -126.263ZM168.03 -264.555L188.744 -341.861C91.3565 -365.346 -6.74359 -349.938 -88.7793 -305.322L-48.7628 -236.012C15.5136 -270.423 91.9898 -282.369 168.03 -264.555ZM-66.0833 -226.012L-106.1 -295.322C-185.756 -246.585 -248.15 -169.332 -276.505 -73.249L-199.199 -52.535C-176.606 -127.295 -128.023 -187.552 -66.0833 -226.012ZM-175.832 183.577C-210.244 119.3 -222.19 42.8242 -204.376 -33.2165L-281.681 -53.9304C-305.167 43.4574 -289.759 141.558 -245.143 223.593L-175.832 183.577ZM7.64431 334.013C-67.1157 311.42 -127.373 262.837 -165.832 200.897L-235.143 240.914C-186.406 320.57 -109.153 382.964 -13.0696 411.319L7.64431 334.013Z" fill="url(#paint4_linear)" fill-opacity="0.05"/>
<defs>
<linearGradient id="paint0_linear" x1="288.537" y1="368.031" x2="51.656" y2="-42.2583" gradientUnits="userSpaceOnUse">
<stop stop-color="#0C1017"/>
<stop offset="0.763055" stop-color="#0C1017" stop-opacity="0"/>
</linearGradient>
<linearGradient id="paint1_linear" x1="288.537" y1="368.031" x2="51.656" y2="-42.2583" gradientUnits="userSpaceOnUse">
<stop stop-color="#0C1017"/>
<stop offset="0.763055" stop-color="#0C1017" stop-opacity="0"/>
</linearGradient>
<linearGradient id="paint2_linear" x1="288.537" y1="368.031" x2="51.656" y2="-42.2583" gradientUnits="userSpaceOnUse">
<stop stop-color="#0C1017"/>
<stop offset="0.763055" stop-color="#0C1017" stop-opacity="0"/>
</linearGradient>
<linearGradient id="paint3_linear" x1="288.537" y1="368.031" x2="51.656" y2="-42.2583" gradientUnits="userSpaceOnUse">
<stop stop-color="#0C1017"/>
<stop offset="0.763055" stop-color="#0C1017" stop-opacity="0"/>
</linearGradient>
<linearGradient id="paint4_linear" x1="373.39" y1="515.001" x2="-178.154" y2="-440.3" gradientUnits="userSpaceOnUse">
<stop stop-color="#0C1017"/>
<stop offset="0.425516" stop-color="#0C1017" stop-opacity="0"/>
</linearGradient>
</defs>
</svg>
