<svg width="42" height="43" viewBox="0 0 42 43" fill="none" xmlns="http://www.w3.org/2000/svg">
<path d="M23.291 14.2405L35.6069 1.92459C36.8397 0.691804 38.8383 0.691804 40.0711 1.92459C41.3039 3.15737 41.3039 5.15602 40.0711 6.3888L27.7552 18.7047L23.291 14.2405ZM25.5224 16.472L37.8 4.19439L25.5224 16.472ZM6.54125 35.4531L16.7673 25.2271L6.54125 35.4531ZM1.31117 38.3777L3.61669 40.6832L7.88646 36.7997L5.19471 34.1079L1.31117 38.3777ZM25.6229 30.3011C24.578 33.1198 25.1878 36.4121 27.4523 38.678C29.8954 41.121 33.5355 41.6382 36.4865 40.2295L31.1943 34.9373C30.1652 33.9082 30.1652 32.2244 31.1943 31.1966C32.2234 30.1675 33.9072 30.1675 34.935 31.1966L40.2272 36.4888C41.6359 33.5391 41.1187 29.899 38.6756 27.4546C36.4111 25.1901 33.1175 24.5803 30.2988 25.6253L16.3771 11.7035C17.4233 8.88479 16.8136 5.58987 14.5477 3.32536C12.1046 0.882277 8.46449 0.365089 5.51348 1.7738L10.8057 7.06604C11.8348 8.09512 11.8348 9.77896 10.8057 10.8067C9.77664 11.8358 8.09281 11.8358 7.06505 10.8067L1.77281 5.51448C0.364098 8.46416 0.881286 12.1043 3.32437 14.5487C5.58888 16.8132 8.88115 17.423 11.6986 16.3794L25.6229 30.3011Z" stroke="#4589FF" stroke-width="2" stroke-miterlimit="10" stroke-linejoin="round"/>
</svg>
