<svg width="42" height="42" viewBox="0 0 42 42" fill="none" xmlns="http://www.w3.org/2000/svg">
<path d="M13 17.6667C13 18.7707 12.104 19.6667 11 19.6667C9.896 19.6667 9 18.7707 9 17.6667C9 16.5627 9.896 15.6667 11 15.6667C12.104 15.6667 13 16.5627 13 17.6667ZM11 26.3333V22.3333V26.3333ZM17.6667 26.3333C18.7707 26.3333 19.6667 25.4373 19.6667 24.3333C19.6667 23.2293 18.7707 22.3333 17.6667 22.3333C16.5627 22.3333 15.6667 23.2293 15.6667 24.3333C15.6667 25.4373 16.5627 26.3333 17.6667 26.3333ZM17.6667 15.6667V19.6667V15.6667ZM24.3333 15.6667C23.2293 15.6667 22.3333 16.5627 22.3333 17.6667C22.3333 18.7707 23.2293 19.6667 24.3333 19.6667C25.4373 19.6667 26.3333 18.7707 26.3333 17.6667C26.3333 16.5627 25.4373 15.6667 24.3333 15.6667ZM24.3333 26.3333V22.3333V26.3333ZM31 26.3333C32.104 26.3333 33 25.4373 33 24.3333C33 23.2293 32.104 22.3333 31 22.3333C29.896 22.3333 29 23.2293 29 24.3333C29 25.4373 29.896 26.3333 31 26.3333ZM31 15.6667V19.6667V15.6667ZM5 8.98933V26.3227V8.98933ZM21 1C9.95467 1 1 9.95467 1 21C1 32.0453 9.95467 41 21 41C32.0453 41 41 32.0453 41 21C41 9.95467 32.0453 1 21 1ZM2.59867 28.8507L17.6093 37.5173L2.59867 28.8507ZM18.5987 40.8613L33.6093 32.1947L18.5987 40.8613ZM37 15.6773V33.0107V15.6773ZM39.4013 13.1493L24.3907 4.48267L39.4013 13.1493ZM8.39067 9.80533L23.4013 1.13867L8.39067 9.80533ZM21 1C9.95467 1 1 9.95467 1 21C1 32.0453 9.95467 41 21 41C32.0453 41 41 32.0453 41 21C41 9.95467 32.0453 1 21 1Z" stroke="#4589FF" stroke-width="2" stroke-miterlimit="10" stroke-linejoin="round"/>
</svg>
