<svg width="94" height="64" viewBox="0 0 94 64" fill="none" xmlns="http://www.w3.org/2000/svg">
<path d="M18.3466 64C11.9466 64 7.25316 62.5778 4.26649 59.7333C1.42205 56.7467 0 53.0489 0 48.64V44.16C0 40.0355 0.568766 35.9111 1.70654 31.7867C2.98654 27.52 4.62212 23.4667 6.61323 19.6267C8.74656 15.7867 11.2354 12.2311 14.0799 8.96C16.9243 5.54666 19.9822 2.55999 23.2533 0H43.0933C38.3999 4.26666 34.3465 8.60444 30.9332 13.0133C27.6621 17.4222 25.1732 22.3289 23.4665 27.7333C28.0176 28.5867 31.3601 30.5067 33.4934 33.4933C35.6267 36.3378 36.6933 39.6089 36.6933 43.3067V48.64C36.6933 53.0489 35.1999 56.7467 32.2133 59.7333C29.3688 62.5778 24.7466 64 18.3466 64ZM68.4798 64C62.0798 64 57.3866 62.5778 54.4 59.7333C51.5555 56.7467 50.1332 53.0489 50.1332 48.64V44.16C50.1332 40.0355 50.7022 35.9111 51.84 31.7867C53.12 27.52 54.7556 23.4667 56.7467 19.6267C58.88 15.7867 61.3689 12.2311 64.2133 8.96C67.0578 5.54666 70.1154 2.55999 73.3865 0H93.2267C88.5334 4.26666 84.48 8.60444 81.0666 13.0133C77.7955 17.4222 75.3067 22.3289 73.6 27.7333C78.1511 28.5867 81.4932 30.5067 83.6266 33.4933C85.7599 36.3378 86.8267 39.6089 86.8267 43.3067V48.64C86.8267 53.0489 85.3334 56.7467 82.3467 59.7333C79.5023 62.5778 74.8798 64 68.4798 64Z" fill="#0C1017" fill-opacity="0.05"/>
</svg>
